<svg width="227" height="86" viewBox="0 0 227 86" fill="none" xmlns="http://www.w3.org/2000/svg">
<g filter="url(#filter0_i_4_5)">
<path d="M147.617 34C147.617 52.7777 114.572 86 73.8085 86C33.0452 86 0 52.7777 0 34C0 15.2223 33.0452 0 73.8085 0C114.572 0 147.617 15.2223 147.617 34Z" fill="#D728A6"/>
</g>
<path d="M147.117 34C147.117 38.5599 145.105 44.0614 141.397 49.7746C137.696 55.4789 132.329 61.3532 125.687 66.6507C112.401 77.2475 94.0555 85.5 73.8085 85.5C53.5615 85.5 35.2162 77.2475 21.9298 66.6507C15.2877 61.3532 9.92153 55.4789 6.21966 49.7746C2.512 44.0614 0.5 38.5599 0.5 34C0.5 24.9243 8.50703 16.5485 21.8272 10.4125C35.1046 4.29626 53.4823 0.5 73.8085 0.5C94.1348 0.5 112.512 4.29626 125.79 10.4125C139.11 16.5485 147.117 24.9243 147.117 34Z" stroke="#2B2D42"/>
<path d="M48.8014 36.9961C48.8014 37.556 48.6679 38.0801 48.401 38.5684C48.1406 39.0501 47.7825 39.4733 47.3268 39.8379C46.8776 40.196 46.3502 40.4792 45.7448 40.6875C45.1393 40.8958 44.4915 41 43.8014 41H32.6198V38.998H43.8014C44.2115 38.998 44.5989 38.946 44.9635 38.8418C45.3281 38.7376 45.6438 38.5944 45.9108 38.4121C46.1842 38.2298 46.399 38.0182 46.5553 37.7773C46.7181 37.5299 46.7994 37.2695 46.7994 36.9961V36H37.6198C36.9296 36 36.2786 35.8698 35.6666 35.6094C35.0612 35.349 34.5306 34.9941 34.0748 34.5449C33.6256 34.0892 33.2708 33.5586 33.0104 32.9531C32.75 32.3411 32.6198 31.6901 32.6198 31V26.9961H34.6217V31C34.6217 31.4167 34.6998 31.8073 34.8561 32.1719C35.0123 32.5365 35.2239 32.8555 35.4908 33.1289C35.7643 33.3958 36.0833 33.6074 36.4479 33.7637C36.8125 33.9199 37.2031 33.998 37.6198 33.998H46.7994V26.9961H48.8014V36.9961ZM64.3092 41H62.3073V37.9824H54.6022V35.9414H62.3073V31.9766H57.1022C56.6139 31.9766 56.1549 32.071 55.7252 32.2598C55.2955 32.4421 54.9212 32.6927 54.6022 33.0117C54.2832 33.3307 54.0293 33.7051 53.8405 34.1348C53.6582 34.5579 53.567 35.0137 53.567 35.502V41H51.5455V35.502C51.5455 34.7337 51.692 34.0143 51.985 33.3438C52.278 32.6732 52.6751 32.0872 53.1764 31.5859C53.6777 31.0846 54.2669 30.6908 54.944 30.4043C55.6211 30.1113 56.3405 29.9648 57.1022 29.9648H64.3092V41ZM77.2975 41C77.2975 40.2708 77.1738 39.5645 76.9264 38.8809C76.6855 38.1908 76.3567 37.543 75.9401 36.9375C75.5299 36.3255 75.0514 35.7559 74.5045 35.2285C73.9642 34.7012 73.3945 34.2324 72.7955 33.8223C72.1966 33.4056 71.5846 33.0573 70.9596 32.7773C70.3411 32.4909 69.7519 32.2793 69.192 32.1426V41H67.1901V30.0039H68.274V30.0234C68.9902 30.0625 69.7519 30.222 70.5592 30.502C71.373 30.7754 72.1803 31.1497 72.9811 31.625C73.7884 32.0938 74.5631 32.6536 75.3053 33.3047C76.054 33.9492 76.7181 34.6621 77.2975 35.4434V30.0039H79.2897V41H77.2975ZM93.6549 41H82.1705V29.9648H93.6549V31.9766H84.192V38.9785H93.6549V41ZM92.3756 36.4395H85.1393V34.418H92.3756V36.4395ZM101.965 41H99.9635V31.9766H94.6705V30.0039H107.249V31.9766H101.965V41ZM120.471 41H118.469V36.5176H111.858V34.5156H118.469V30.0039H120.471V41ZM110.911 41H108.909V30.0039H110.911V41ZM147.268 41H144.563L140.364 36.9961H134.231V35.0234H142.268C142.685 35.0234 143.075 34.9453 143.44 34.7891C143.805 34.6263 144.12 34.4082 144.387 34.1348C144.661 33.8613 144.876 33.5423 145.032 33.1777C145.188 32.8066 145.266 32.4128 145.266 31.9961C145.266 31.5794 145.188 31.1888 145.032 30.8242C144.876 30.4596 144.661 30.1439 144.387 29.877C144.12 29.6035 143.805 29.3887 143.44 29.2324C143.075 29.0762 142.685 28.998 142.268 28.998H133.108V41H131.106V26.9961H142.268C142.958 26.9961 143.606 27.1296 144.212 27.3965C144.817 27.6569 145.344 28.015 145.794 28.4707C146.249 28.9199 146.607 29.4473 146.868 30.0527C147.135 30.6582 147.268 31.306 147.268 31.9961C147.268 32.6211 147.161 33.2135 146.946 33.7734C146.731 34.3268 146.435 34.8249 146.057 35.2676C145.68 35.7038 145.234 36.0684 144.719 36.3613C144.212 36.6478 143.661 36.8398 143.069 36.9375L147.268 41ZM151.575 41H149.592V30.0039H151.575V41ZM166.839 30.0039L161.223 41H158.938L153.284 30.0039H155.559L160.081 38.7832L164.583 30.0039H166.839ZM180.022 41H168.538V29.9648H180.022V31.9766H170.559V38.9785H180.022V41ZM178.743 36.4395H171.506V34.418H178.743V36.4395ZM195.198 41H192.473L189.348 38.0215H185.296V36.0391H190.833C191.113 36.0391 191.376 35.9837 191.624 35.873C191.871 35.7624 192.086 35.6159 192.268 35.4336C192.45 35.2448 192.594 35.0267 192.698 34.7793C192.802 34.5319 192.854 34.2715 192.854 33.998C192.854 33.7181 192.802 33.4577 192.698 33.2168C192.594 32.9694 192.45 32.7546 192.268 32.5723C192.086 32.39 191.871 32.2467 191.624 32.1426C191.376 32.0319 191.113 31.9766 190.833 31.9766H184.251V41H182.249V30.0039H190.833C191.386 30.0039 191.907 30.1113 192.395 30.3262C192.883 30.5345 193.307 30.821 193.665 31.1855C194.029 31.5436 194.316 31.9668 194.524 32.4551C194.732 32.9368 194.837 33.4512 194.837 33.998C194.837 34.4473 194.765 34.8802 194.622 35.2969C194.478 35.707 194.277 36.0846 194.016 36.4297C193.762 36.7682 193.46 37.0612 193.108 37.3086C192.756 37.556 192.372 37.7383 191.956 37.8555L195.198 41ZM209.797 41H207.796V37.9824H200.09V35.9414H207.796V31.9766H202.59C202.102 31.9766 201.643 32.071 201.214 32.2598C200.784 32.4421 200.409 32.6927 200.09 33.0117C199.771 33.3307 199.518 33.7051 199.329 34.1348C199.146 34.5579 199.055 35.0137 199.055 35.502V41H197.034V35.502C197.034 34.7337 197.18 34.0143 197.473 33.3438C197.766 32.6732 198.163 32.0872 198.665 31.5859C199.166 31.0846 199.755 30.6908 200.432 30.4043C201.109 30.1113 201.829 29.9648 202.59 29.9648H209.797V41Z" fill="white"/>
<defs>
<filter id="filter0_i_4_5" x="0" y="0" width="147.617" height="90" filterUnits="userSpaceOnUse" color-interpolation-filters="sRGB">
<feFlood flood-opacity="0" result="BackgroundImageFix"/>
<feBlend mode="normal" in="SourceGraphic" in2="BackgroundImageFix" result="shape"/>
<feColorMatrix in="SourceAlpha" type="matrix" values="0 0 0 0 0 0 0 0 0 0 0 0 0 0 0 0 0 0 127 0" result="hardAlpha"/>
<feOffset dy="4"/>
<feGaussianBlur stdDeviation="2"/>
<feComposite in2="hardAlpha" operator="arithmetic" k2="-1" k3="1"/>
<feColorMatrix type="matrix" values="0 0 0 0 0 0 0 0 0 0 0 0 0 0 0 0 0 0 0.25 0"/>
<feBlend mode="normal" in2="shape" result="effect1_innerShadow_4_5"/>
</filter>
</defs>
</svg>
